<svg width="910" height="160" viewBox="0 0 910 160" fill="none" xmlns="http://www.w3.org/2000/svg">
<g clip-path="url(#clip0_17_340)">
<rect width="60" height="160" fill="#51D9A0"/>
<rect x="750" width="60" height="160" fill="#51D9A0"/>
<path d="M890 60C890 93.1371 863.137 120 830 120C830 120 830 93.1371 830 60C830 26.8629 830 0 830 0C863.137 0 890 26.8629 890 60Z" fill="#51D9A0"/>
<path d="M160 80C160 124.183 124.183 160 80 160C80 160 80 124.183 80 80C80 35.8172 80 0 80 0C124.183 0 160 35.8172 160 80Z" fill="#51D9A0"/>
<path d="M160 80C160 124.183 124.183 160 80 160C80 160 80 124.183 80 80C80 35.8172 80 0 80 0C124.183 0 160 35.8172 160 80Z" fill="#51D9A0"/>
<path d="M350 80C350 35.8172 385.817 -3.86258e-06 430 0C430 0 430 35.8172 430 80C430 124.183 430 160 430 160C385.817 160 350 124.183 350 80Z" fill="#51D9A0"/>
<path d="M530 80C530 124.183 494.183 160 450 160C450 160 450 124.183 450 80C450 35.8172 450 0 450 0C494.183 0 530 35.8172 530 80Z" fill="#51D9A0"/>
<rect x="210" y="120" width="60" height="40" fill="#51D9A0"/>
<path d="M330 30C280.294 30 240 70.2944 240 120" stroke="#51D9A0" stroke-width="60"/>
<path d="M830 80C874.183 80 910 115.817 910 160C910 160 874.183 160 830 160C830 115.817 830 80 830 80Z" fill="#51D9A0"/>
<path fill-rule="evenodd" clip-rule="evenodd" d="M120 -14L200 -14L268.785 -14C226.641 5.43362 200 34.0679 200 66C200 21.8172 164.183 -14 120 -14Z" fill="#51D9A0"/>
<path fill-rule="evenodd" clip-rule="evenodd" d="M630 0C585.817 -3.86258e-06 550 35.8172 550 80C550 124.183 585.817 160 630 160H650C690.796 160 724.46 129.463 729.381 90H673.811L659.092 99.0919L640 130L620.908 99.0919L590 80L620.908 60.9081L640 30L659.092 60.9081L673.811 70H729.381C724.46 30.5369 690.796 0 650 0H630Z" fill="#51D9A0"/>
</g>
<defs>
<clipPath id="clip0_17_340">
<rect width="910" height="160" fill="white"/>
</clipPath>
</defs>
</svg>
